<mxfile host="app.diagrams.net" modified="2023-06-12T09:53:23.473Z" agent="Mozilla/5.0 (Macintosh; Intel Mac OS X 10_15_7) AppleWebKit/537.36 (KHTML, like Gecko) Chrome/114.0.0.0 Safari/537.36" etag="NkqdgRxIF_bpIcfHyNif" version="21.3.8" type="github">
  <diagram name="第 1 页" id="vbBrf8k9GP3qmLyQSlIw">
    <mxGraphModel dx="1434" dy="796" grid="1" gridSize="10" guides="1" tooltips="1" connect="1" arrows="1" fold="1" page="1" pageScale="1" pageWidth="827" pageHeight="1169" math="0" shadow="0">
      <root>
        <mxCell id="0" />
        <mxCell id="1" parent="0" />
        <mxCell id="q8GweL1mR9AGY_AivAR2-9" value="" style="edgeStyle=orthogonalEdgeStyle;rounded=0;orthogonalLoop=1;jettySize=auto;html=1;sketch=1;curveFitting=1;jiggle=2;" parent="1" source="q8GweL1mR9AGY_AivAR2-1" target="q8GweL1mR9AGY_AivAR2-3" edge="1">
          <mxGeometry relative="1" as="geometry" />
        </mxCell>
        <mxCell id="q8GweL1mR9AGY_AivAR2-1" value="GremlinServer" style="rounded=0;whiteSpace=wrap;html=1;sketch=1;curveFitting=1;jiggle=2;fillColor=#FFE6CC;" parent="1" vertex="1">
          <mxGeometry x="190" y="370" width="120" height="60" as="geometry" />
        </mxCell>
        <mxCell id="q8GweL1mR9AGY_AivAR2-10" value="" style="edgeStyle=orthogonalEdgeStyle;rounded=0;orthogonalLoop=1;jettySize=auto;html=1;sketch=1;curveFitting=1;jiggle=2;" parent="1" source="q8GweL1mR9AGY_AivAR2-2" target="q8GweL1mR9AGY_AivAR2-3" edge="1">
          <mxGeometry relative="1" as="geometry" />
        </mxCell>
        <mxCell id="q8GweL1mR9AGY_AivAR2-2" value="GremlinConsol" style="rounded=0;whiteSpace=wrap;html=1;sketch=1;curveFitting=1;jiggle=2;fillColor=#FFE6CC;" parent="1" vertex="1">
          <mxGeometry x="440" y="370" width="120" height="60" as="geometry" />
        </mxCell>
        <mxCell id="q8GweL1mR9AGY_AivAR2-11" value="" style="edgeStyle=orthogonalEdgeStyle;rounded=0;orthogonalLoop=1;jettySize=auto;html=1;sketch=1;curveFitting=1;jiggle=2;" parent="1" source="q8GweL1mR9AGY_AivAR2-3" target="q8GweL1mR9AGY_AivAR2-4" edge="1">
          <mxGeometry relative="1" as="geometry" />
        </mxCell>
        <mxCell id="q8GweL1mR9AGY_AivAR2-3" value="GremlinCore" style="rounded=0;whiteSpace=wrap;html=1;sketch=1;curveFitting=1;jiggle=2;fillColor=#B3FF66;" parent="1" vertex="1">
          <mxGeometry x="190" y="480" width="370" height="60" as="geometry" />
        </mxCell>
        <mxCell id="q8GweL1mR9AGY_AivAR2-4" value="Storage" style="shape=cylinder3;whiteSpace=wrap;html=1;boundedLbl=1;backgroundOutline=1;size=15;sketch=1;curveFitting=1;jiggle=2;fillColor=#3333FF;" parent="1" vertex="1">
          <mxGeometry x="190" y="620" width="370" height="80" as="geometry" />
        </mxCell>
        <mxCell id="q8GweL1mR9AGY_AivAR2-5" value="" style="shape=curlyBracket;whiteSpace=wrap;html=1;rounded=1;labelPosition=left;verticalLabelPosition=middle;align=right;verticalAlign=middle;sketch=1;curveFitting=1;jiggle=2;" parent="1" vertex="1">
          <mxGeometry x="560" y="431" width="20" height="160" as="geometry" />
        </mxCell>
        <mxCell id="q8GweL1mR9AGY_AivAR2-6" value="TinkerGraph" style="rounded=1;whiteSpace=wrap;html=1;sketch=1;curveFitting=1;jiggle=2;" parent="1" vertex="1">
          <mxGeometry x="580" y="400" width="120" height="60" as="geometry" />
        </mxCell>
        <mxCell id="q8GweL1mR9AGY_AivAR2-7" value="hgraphdb" style="rounded=1;whiteSpace=wrap;html=1;sketch=1;curveFitting=1;jiggle=2;" parent="1" vertex="1">
          <mxGeometry x="580" y="485" width="120" height="60" as="geometry" />
        </mxCell>
        <mxCell id="q8GweL1mR9AGY_AivAR2-8" value="HugeGraph" style="rounded=1;whiteSpace=wrap;html=1;sketch=1;curveFitting=1;jiggle=2;" parent="1" vertex="1">
          <mxGeometry x="580" y="560" width="120" height="60" as="geometry" />
        </mxCell>
      </root>
    </mxGraphModel>
  </diagram>
</mxfile>
